<?xml version="1.0" standalone="no"?>
<!DOCTYPE svg PUBLIC "-//W3C//DTD SVG 20010904//EN"
 "http://www.w3.org/TR/2001/REC-SVG-20010904/DTD/svg10.dtd">
<svg version="1.0" xmlns="http://www.w3.org/2000/svg"
 width="148.000000pt" height="275.000000pt" viewBox="0 0 148.000000 275.000000"
 preserveAspectRatio="xMidYMid meet">

<g transform="translate(0.000000,275.000000) scale(0.100000,-0.100000)"
fill="#000000" stroke="none">
<path d="M905 2731 c-96 -45 -155 -152 -163 -296 -5 -104 12 -184 55 -249 18
-28 21 -37 10 -33 -12 5 -72 -97 -271 -463 -141 -258 -256 -474 -256 -479 0
-6 5 -11 10 -11 6 0 10 -4 10 -10 0 -5 -6 -10 -14 -10 -8 0 -24 -12 -35 -26
-41 -53 -39 -147 5 -191 13 -13 24 -33 24 -43 0 -25 9 -25 435 -1 176 10 322
17 323 15 2 -1 -89 -160 -202 -353 -113 -192 -209 -356 -212 -364 -2 -7 2 -20
11 -27 8 -7 15 -21 15 -31 0 -18 9 -19 120 -19 l120 0 0 40 0 39 -85 3 -86 3
215 365 c191 324 213 366 200 381 -7 8 -14 23 -14 32 0 10 -8 17 -17 17 -10 0
-175 -9 -368 -20 -192 -10 -350 -18 -352 -17 -1 2 2 19 6 40 10 42 0 96 -23
133 -17 24 -14 31 235 487 138 254 252 463 254 465 2 2 18 -6 36 -17 40 -25
126 -28 167 -7 73 38 137 147 153 262 23 160 -46 331 -154 383 -53 26 -100 26
-152 2z m141 -93 c92 -81 117 -266 53 -393 -44 -88 -101 -116 -166 -84 -108
54 -148 264 -77 406 51 103 123 129 190 71z m-733 -1561 c3 -8 1 -20 -4 -28
-6 -10 -9 -7 -9 14 0 29 5 35 13 14z"/>
<path d="M0 40 l0 -40 735 0 735 0 0 40 0 40 -735 0 -735 0 0 -40z"/>
</g>
</svg>
