<?xml version="1.0" standalone="no"?>
<!DOCTYPE svg PUBLIC "-//W3C//DTD SVG 20010904//EN"
 "http://www.w3.org/TR/2001/REC-SVG-20010904/DTD/svg10.dtd">
<svg version="1.0" xmlns="http://www.w3.org/2000/svg"
 width="148.000000pt" height="348.000000pt" viewBox="0 0 148.000000 348.000000"
 preserveAspectRatio="xMidYMid meet">

<g transform="translate(0.000000,348.000000) scale(0.100000,-0.100000)"
fill="#000000" stroke="none">
<path d="M743 3459 c-145 -72 -202 -319 -117 -508 28 -64 95 -136 136 -146
l23 -6 -2 -446 c-2 -402 -4 -447 -19 -464 -19 -21 -30 -103 -20 -144 4 -14 14
-33 24 -43 16 -16 17 -45 12 -377 l-5 -360 -113 -356 c-61 -196 -112 -362
-112 -368 0 -6 7 -11 15 -11 8 0 15 -9 15 -20 0 -19 7 -20 120 -20 l120 0 0
40 0 40 -91 0 c-81 0 -90 2 -85 18 3 9 53 168 111 354 l105 336 -1 353 c0 287
3 355 14 368 25 29 37 59 37 96 0 42 -23 103 -42 110 -10 4 -12 93 -10 448 l3
442 49 27 c210 117 195 552 -22 642 -51 22 -95 20 -145 -5z m138 -81 c51 -34
91 -122 97 -213 16 -255 -177 -389 -276 -192 -32 63 -43 142 -31 222 11 80 36
132 84 173 43 38 79 41 126 10z m-54 -1595 c-3 -10 -5 -2 -5 17 0 19 2 27 5
18 2 -10 2 -26 0 -35z"/>
<path d="M0 50 l0 -40 735 0 735 0 0 40 0 40 -735 0 -735 0 0 -40z"/>
</g>
</svg>
